<?xml version="1.0" standalone="no"?>
<!DOCTYPE svg PUBLIC "-//W3C//DTD SVG 1.1//EN" "http://www.w3.org/Graphics/SVG/1.1/DTD/svg11.dtd" >
<svg xmlns="http://www.w3.org/2000/svg">
<metadata>Generated by IcoMoon</metadata>
<defs>
<font id="icomoon" horiz-adv-x="512">
<font-face units-per-em="512" ascent="480" descent="-32" />
<missing-glyph horiz-adv-x="512" />
<glyph unicode="&#x20;" d="" horiz-adv-x="256" />
<glyph unicode="&#xe600;" d="M180.565 76.279c0 0-24.956-24.765-24.956-24.765-21.618-21.428-56.794-21.447-78.412 0-10.373 10.316-16.099 24.007-16.099 38.551 0 14.563 5.727 28.274 16.099 38.57 0 0 91.838 91.098 91.838 91.098 19.020 18.868 54.822 46.649 80.915 20.784 11.985-11.89 31.327-11.814 43.197 0.151 11.909 11.965 11.833 31.308-0.151 43.197-44.355 43.994-109.909 35.878-167.007-20.784 0 0-91.838-91.098-91.838-91.098-22.016-21.865-34.153-50.954-34.153-81.92 0-30.947 12.136-60.036 34.172-81.901 22.66-22.49 52.432-33.735 82.224-33.735 29.791 0 59.582 11.245 82.261 33.754 0 0 24.974 24.765 24.974 24.765 11.965 11.89 12.023 31.232 0.132 43.197-11.871 11.966-31.232 12.022-43.197 0.132zM458.866 430.166c-47.654 47.274-114.252 49.834-158.36 6.087 0 0-31.099-30.872-31.099-30.872-11.985-11.89-12.041-31.213-0.151-43.197 11.89-11.965 31.232-12.041 43.197-0.151 0 0 31.099 30.852 31.099 30.852 22.832 22.68 52.755 13.274 72.268-6.068 10.392-10.316 16.118-24.026 16.118-38.571 0-14.563-5.727-28.255-16.118-38.57 0 0-97.962-97.185-97.962-97.185-44.81-44.43-65.82-23.571-74.79-14.678-11.965 11.89-31.308 11.814-43.197-0.151-11.89-11.985-11.814-31.308 0.151-43.197 20.575-20.404 44.051-30.531 68.646-30.531 30.132 0 61.952 15.171 92.217 45.207 0 0 97.981 97.185 97.981 97.185 22.035 21.883 34.171 50.973 34.171 81.92 0 30.947-12.137 60.036-34.171 81.92z" horiz-adv-x="493" />
<glyph unicode="&#xe601;" d="M504 480c0 0-432 0-432 0-39.594 0-72-32.918-72-73.152 0 0 0-256 0-256 0-40.214 32.406-73.13 72-73.13 0 0 144 0 144 0 0 0 144-109.718 144-109.718s0 109.717 0 109.717c0 0 144 0 144 0 39.595 0 72 32.918 72 73.13 0 0 0 256 0 256 0 40.235-32.405 73.152-72 73.152z" horiz-adv-x="576" />
<glyph unicode="&#xe602;" d="M512 232.258c0 0 0-16.516 0-16.516s-153.699-23.651-153.699-23.651c-4.014-12.734-10.372-24.411-18.531-34.601 0 0 51.762-69.021 51.762-69.021 0 0-69.087 51.811-69.087 51.811-10.158-8.027-21.818-14.27-34.486-18.25 0 0-23.7-154.029-23.7-154.029 0 0-16.516 0-16.516 0 0 0-23.651 153.699-23.651 153.699-12.734 4.014-24.411 10.372-34.602 18.531 0 0-69.021-51.762-69.021-51.762 0 0 51.811 69.087 51.811 69.087-8.027 10.158-14.27 21.818-18.25 34.486 0 0-154.030 23.7-154.030 23.7 0 0 0 16.516 0 16.516 0 0 153.699 23.651 153.699 23.651 4.013 12.734 10.372 24.411 18.531 34.602 0 0-51.761 69.021-51.761 69.021 0 0 69.087-51.811 69.087-51.811 10.157 8.027 21.818 14.27 34.486 18.25 0 0 23.701 154.029 23.701 154.029 0 0 16.516 0 16.516 0 0 0 23.7-154.029 23.7-154.029 12.668-3.981 24.329-10.224 34.486-18.25 0 0 69.087 51.811 69.087 51.811 0 0-51.762-69.021-51.762-69.021 8.159-10.19 14.517-21.868 18.531-34.601 0 0 153.699-23.651 153.699-23.651z" />
<glyph unicode="&#xe603;" d="M325.421 288.536c-3.673 9.793 98.889 100.108 39.058 173.291-14.011 17.132-61.497-81.936-128.935-126.797-37.214-24.747-123.782-77.418-123.782-106.52 0 0 0-188.408 0-188.408 0-35.036 137.273-72.103 241.623-72.103 38.205 0 93.615 236.202 93.615 273.725 0 37.661-117.89 37.019-121.579 46.812zM83.829 285.919c-18.375 0-83.814-11.020-83.814-85.983 0 0 0-133.535 0-133.535 0-74.971 65.439-83.236 83.814-83.236 18.359 0-27.941 15.774-27.941 62.236 0 0 0 175.534 0 175.534 0 48.705 46.3 64.983 27.941 64.983z" horiz-adv-x="447" />
<glyph unicode="&#xe604;" d="M121.579 159.464c3.674-9.793-98.889-100.108-39.059-173.291 14.011-17.132 61.497 81.937 128.935 126.797 37.214 24.747 123.782 77.418 123.782 106.52 0 0 0 188.408 0 188.408 0 35.035-137.273 72.102-241.624 72.102-38.205 0-93.615-236.202-93.615-273.725 0-37.661 117.89-37.019 121.579-46.812zM363.171 162.080c18.375 0 83.814 11.020 83.814 85.983 0 0 0 133.534 0 133.534 0 74.972-65.438 83.237-83.813 83.237-18.359 0 27.94-15.774 27.94-62.237 0 0 0-175.534 0-175.534 0-48.705-46.3-64.983-27.94-64.983z" horiz-adv-x="447" />
<glyph unicode="&#xe605;" d="M310.627 41.373l160 160c12.497 12.496 12.497 32.758 0 45.255l-160 160c-12.497 12.496-32.758 12.496-45.255 0-12.497-12.497-12.497-32.758 0-45.255l105.373-105.373h-306.745c-17.673 0-32-14.327-32-32s14.327-32 32-32h306.745l-105.373-105.373c-6.248-6.248-9.372-14.438-9.372-22.627s3.124-16.379 9.372-22.627c12.497-12.497 32.758-12.497 45.255 0z" />
<glyph unicode="&#xe606;" d="M507.331 68.67c-0.002 0.002-0.004 0.004-0.006 0.005l-155.322 155.325 155.322 155.325c0.002 0.002 0.004 0.003 0.006 0.005 1.672 1.673 2.881 3.627 3.656 5.708 2.123 5.688 0.912 12.341-3.662 16.915l-73.373 73.373c-4.574 4.573-11.225 5.783-16.914 3.66-2.080-0.775-4.035-1.984-5.709-3.655 0-0.002-0.002-0.003-0.004-0.005l-155.324-155.326-155.324 155.325c-0.002 0.002-0.003 0.003-0.005 0.005-1.673 1.671-3.627 2.88-5.707 3.655-5.69 2.124-12.341 0.913-16.915-3.66l-73.374-73.374c-4.574-4.574-5.784-11.226-3.661-16.914 0.776-2.080 1.985-4.036 3.656-5.708 0.002-0.001 0.003-0.003 0.005-0.005l155.325-155.324-155.325-155.326c-0.001-0.002-0.003-0.003-0.004-0.005-1.671-1.673-2.88-3.627-3.657-5.707-2.124-5.688-0.913-12.341 3.661-16.915l73.374-73.373c4.575-4.574 11.226-5.784 16.915-3.661 2.080 0.776 4.035 1.985 5.708 3.656 0.001 0.002 0.003 0.003 0.005 0.005l155.324 155.325 155.324-155.325c0.002-0.001 0.004-0.003 0.006-0.004 1.674-1.672 3.627-2.881 5.707-3.657 5.689-2.123 12.342-0.913 16.914 3.661l73.373 73.374c4.574 4.574 5.785 11.227 3.662 16.915-0.776 2.080-1.985 4.034-3.657 5.707z" />
<glyph unicode="&#xf004;" d="M256 4.572q-7.428 0-12.572 5.143l-178.286 172q-2.857 2.286-7.857 7.428t-15.857 18.714-19.428 27.857-15.286 34.571-6.715 39.428q0 62.857 36.285 98.286t100.285 35.428q17.714 0 36.143-6.143t34.285-16.572 27.286-19.572 21.714-19.428q10.286 10.285 21.714 19.428t27.286 19.572 34.286 16.572 36.143 6.143q64 0 100.286-35.428t36.286-98.286q0-63.143-65.428-128.572l-178-171.428q-5.143-5.143-12.572-5.143z" />
<glyph unicode="&#xf007;" d="M402.286 78.572q0-34.286-20.857-54.143t-55.428-19.857h-249.714q-34.572 0-55.428 19.857t-20.857 54.143q0 15.143 1 29.572t4 31.143 7.572 31 12.285 27.857 17.715 23.143 24.428 15.286 31.857 5.714q2.572 0 12-6.143t21.285-13.715 30.857-13.714 38.143-6.143 38.143 6.143 30.857 13.714 21.286 13.714 12 6.143q17.428 0 31.857-5.714t24.428-15.285 17.714-23.143 12.286-27.857 7.572-31 4-31.143 1-29.572zM310.857 333.714q0-45.428-32.143-77.572t-77.572-32.143-77.572 32.143-32.143 77.571 32.143 77.572 77.572 32.143 77.572-32.143 32.143-77.572z" horiz-adv-x="403" />
<glyph unicode="&#xf00d;" d="M370.857 102.286q0-11.428-8-19.428l-38.857-38.857q-8-8-19.428-8t-19.428 8l-84 84-84-84q-8-8-19.428-8t-19.428 8l-38.857 38.857q-8 8-8 19.428t8 19.428l84 84-84 84q-8 8-8 19.428t8 19.428l38.857 38.857q8 8 19.428 8t19.428-8l84-84 84 84q8 8 19.428 8t19.428-8l38.857-38.857q8-8 8-19.428t-8-19.428l-84-84 84-84q8-8 8-19.428z" horiz-adv-x="403" />
<glyph unicode="&#xf012;" d="M73.143 68.572v-54.857q0-4-2.572-6.572t-6.572-2.572h-54.857q-4 0-6.572 2.572t-2.571 6.572v54.857q0 4 2.571 6.572t6.572 2.572h54.857q4 0 6.572-2.572t2.572-6.572zM182.857 105.143v-91.428q0-4-2.571-6.572t-6.572-2.572h-54.857q-4 0-6.572 2.572t-2.572 6.572v91.428q0 4 2.572 6.572t6.572 2.572h54.857q4 0 6.572-2.572t2.571-6.572zM292.572 178.286v-164.571q0-4-2.572-6.572t-6.572-2.572h-54.857q-4 0-6.571 2.572t-2.571 6.572v164.572q0 4 2.571 6.572t6.572 2.572h54.857q4 0 6.572-2.572t2.572-6.572zM402.286 288v-274.286q0-4-2.572-6.572t-6.572-2.572h-54.857q-4 0-6.572 2.572t-2.572 6.572v274.286q0 4 2.572 6.572t6.572 2.572h54.857q4 0 6.572-2.572t2.572-6.572zM512 434.286v-420.572q0-4-2.572-6.572t-6.572-2.572h-54.857q-4 0-6.572 2.572t-2.572 6.572v420.572q0 4 2.572 6.572t6.572 2.571h54.857q4 0 6.572-2.571t2.572-6.572z" />
<glyph unicode="&#xf013;" d="M292.572 224q0 30.286-21.428 51.714t-51.714 21.428-51.714-21.428-21.428-51.714 21.428-51.714 51.714-21.428 51.714 21.428 21.428 51.714zM438.857 255.143v-63.429q0-3.428-2.286-6.572t-5.714-3.714l-52.857-8q-5.428-15.428-11.143-26 10-14.286 30.572-39.428 2.857-3.428 2.857-7.143t-2.572-6.572q-7.714-10.572-28.286-30.857t-26.857-20.286q-3.428 0-7.428 2.572l-39.428 30.857q-12.572-6.572-26-10.857-4.572-38.857-8.286-53.143-2-8-10.286-8h-63.428q-4 0-7 2.428t-3.286 6.143l-8 52.572q-14 4.572-25.714 10.572l-40.285-30.572q-2.857-2.572-7.143-2.572-4 0-7.143 3.143-36 32.572-47.143 48-2 2.857-2 6.572 0 3.428 2.285 6.572 4.285 6 14.572 19t15.428 20.143q-7.715 14.286-11.715 28.286l-52.285 7.714q-3.715 0.572-6 3.572t-2.285 6.714v63.428q0 3.429 2.285 6.572t5.428 3.714l53.143 8q4 13.143 11.143 26.286-11.428 16.286-30.572 39.428-2.857 3.429-2.857 6.857 0 2.857 2.572 6.571 7.428 10.286 28.143 30.714t27 20.429q3.715 0 7.428-2.857l39.428-30.572q12.572 6.572 26 10.857 4.572 38.857 8.286 53.143 2 8 10.286 8h63.428q4 0 7-2.428t3.286-6.143l8-52.572q14-4.572 25.714-10.572l40.572 30.572q2.572 2.572 6.857 2.572 3.714 0 7.143-2.857 36.857-34 47.143-48.572 2-2.285 2-6.285 0-3.429-2.286-6.572-4.286-6-14.572-19t-15.428-20.143q7.428-14.285 11.714-28l52.286-8q3.714-0.571 6-3.571t2.286-6.714z" />
<glyph unicode="&#xf040;" d="M103.715 41.143l26 26-67.143 67.143-26-26v-30.572h36.572v-36.572h30.572zM253.143 306.286q0 6.286-6.286 6.286-2.857 0-4.857-2l-154.857-154.857q-2-2-2-4.857 0-6.286 6.285-6.286 2.857 0 4.857 2l154.857 154.857q2 2 2 4.857zM237.714 361.143l118.857-118.857-237.714-237.714h-118.857v118.857zM432.857 333.714q0-15.143-10.572-25.714l-47.428-47.428-118.857 118.857 47.428 47.143q10.286 10.857 25.714 10.857 15.143 0 26-10.857l67.143-66.857q10.572-11.143 10.572-26z" />
<glyph unicode="&#xf054;" d="M314 242.286q0-14.857-10.572-26l-186.286-186q-10.572-10.572-25.715-10.572t-25.715 10.572l-21.715 21.428q-10.572 11.143-10.572 26 0 15.143 10.572 25.714l138.857 138.857-138.857 138.571q-10.572 11.143-10.572 26 0 15.143 10.572 25.714l21.715 21.429q10.285 10.857 25.715 10.857t25.715-10.857l186.286-186q10.572-10.572 10.572-25.715z" horiz-adv-x="329" />
<glyph unicode="&#xf055;" d="M347.428 205.714v36.572q0 7.428-5.428 12.857t-12.857 5.429h-73.143v73.143q0 7.428-5.428 12.857t-12.857 5.428h-36.571q-7.428 0-12.857-5.428t-5.429-12.857v-73.143h-73.143q-7.428 0-12.857-5.428t-5.428-12.857v-36.571q0-7.428 5.428-12.857t12.857-5.428h73.143v-73.143q0-7.428 5.428-12.857t12.857-5.428h36.571q7.428 0 12.857 5.428t5.429 12.857v73.143h73.143q7.428 0 12.857 5.428t5.428 12.857zM438.857 224q0-59.714-29.428-110.143t-79.857-79.857-110.143-29.428-110.143 29.428-79.857 79.857-29.428 110.143 29.428 110.143 79.857 79.857 110.143 29.428 110.143-29.428 79.857-79.857 29.428-110.143z" />
<glyph unicode="&#xf06e;" d="M475.428 205.714q-43.428 67.428-108.857 100.857 17.428-29.715 17.428-64.286 0-52.857-37.572-90.428t-90.428-37.572-90.428 37.572-37.572 90.428q0 34.572 17.428 64.286-65.428-33.428-108.857-100.857 38-58.572 95.285-93.286t124.143-34.714 124.143 34.714 95.286 93.286zM269.714 315.428q0 5.715-4 9.715t-9.714 4q-35.714 0-61.286-25.572t-25.572-61.286q0-5.714 4-9.714t9.714-4 9.714 4 4 9.714q0 24.572 17.428 42t42 17.428q5.714 0 9.714 4t4 9.714zM512 205.714q0-9.714-5.714-19.714-40-65.714-107.572-105.286t-142.714-39.572-142.714 39.714-107.572 105.143q-5.715 10-5.715 19.714t5.715 19.714q40 65.428 107.572 105.143t142.714 39.714 142.714-39.714 107.572-105.143q5.714-10 5.714-19.714z" />
<glyph unicode="&#xf075;" d="M512 224q0-49.714-34.286-91.857t-93.143-66.572-128.572-24.428q-20 0-41.428 2.286-56.572-50-131.429-69.143-14-4-32.572-6.286-4.857-0.571-8.715 2.572t-5 8.286v0.286q-0.857 1.143-0.143 3.428t0.572 2.857 1.285 2.714l1.715 2.572t2 2.428 2.285 2.572q2 2.286 8.857 9.857t9.857 10.857 8.857 11.286 9.285 14.572 7.715 16.857 7.428 21.714q-44.857 25.428-70.715 62.857t-25.857 80.286q0 37.143 20.285 71t54.572 58.428 81.714 39 99.428 14.429q69.714 0 128.571-24.429t93.143-66.571 34.286-91.857z" />
<glyph unicode="&#xf082;" d="M373.428 217.714l6.572 62.572h-56.572v31.143q0 14 4.428 19.572t20.428 5.572h31.428v62.572h-50q-43.428 0-62.286-20.572t-18.857-60.857v-37.429h-37.429v-62.572h37.428v-181.429h74.857v181.428h50zM438.857 361.143v-274.286q0-34-24.143-58.143t-58.143-24.143h-274.286q-34 0-58.143 24.143t-24.143 58.143v274.286q0 34 24.143 58.143t58.143 24.143h274.286q34 0 58.143-24.143t24.143-58.143z" />
<glyph unicode="&#xf086;" d="M402.286 260.572q0-39.715-26.857-73.429t-73.286-53.286-101-19.572q-24.572 0-50.286 4.572-35.428-25.143-79.428-36.572-10.285-2.572-24.572-4.572h-0.857q-3.143 0-5.857 2.286t-3.285 6q-0.285 0.857-0.285 1.857t0.143 1.857 0.572 1.714l0.715 1.428t1 1.572 1.143 1.428 1.285 1.428 1.143 1.286q1.428 1.714 6.572 7.143t7.428 8.428 6.428 8.286 7.143 11 5.857 12.572q-35.428 20.572-55.715 50.572t-20.285 64q0 39.714 26.857 73.428t73.285 53.286 101 19.572 101-19.572 73.286-53.286 26.857-73.428zM512 187.428q0-34.286-20.286-64.143t-55.714-50.428q2.857-6.857 5.857-12.572t7.143-11 6.428-8.286 7.428-8.428 6.572-7.143q0.286-0.286 1.143-1.286t1.286-1.428 1.143-1.428 1-1.572l0.714-1.428t0.572-1.714 0.143-1.857-0.286-1.857q-0.857-4-3.714-6.286t-6.286-2q-14.286 2-24.572 4.572-44 11.428-79.428 36.572-25.714-4.572-50.286-4.572-77.428 0-134.857 37.714 16.571-1.143 25.143-1.143 46 0 88.286 12.857t75.428 36.857q35.714 26.286 54.857 60.572t19.143 72.572q0 22-6.572 43.428 36.857-20.286 58.286-50.857t21.429-65.715z" />
<glyph unicode="&#xf08a;" d="M475.428 309.714q0 23.143-6.143 40.857t-15.714 28.143-23.286 17-26.857 8.857-28 2.285-32-7.285-31.572-18.286-24.714-20.572-17.143-17.572q-5.143-6.286-14-6.286t-14 6.286q-6.857 8-17.143 17.572t-24.715 20.571-31.572 18.286-32 7.286-28-2.286-26.857-8.857-23.285-17-15.715-28.143-6.143-40.857q0-48 53.428-101.428l166-160 165.714 159.714q53.714 53.714 53.714 101.714zM512 309.714q0-63.143-65.428-128.571l-178-171.428q-5.143-5.143-12.572-5.143t-12.572 5.143l-178.286 172q-2.857 2.286-7.857 7.428t-15.857 18.714-19.428 27.857-15.286 34.571-6.715 39.428q0 62.857 36.285 98.286t100.285 35.428q17.714 0 36.143-6.143t34.285-16.571 27.286-19.572 21.714-19.428q10.286 10.286 21.714 19.428t27.286 19.572 34.286 16.571 36.143 6.143q64 0 100.286-35.428t36.286-98.286z" />
<glyph unicode="&#xf0a8;" d="M365.714 205.714v36.572q0 7.428-5.428 12.857t-12.857 5.429h-143.429l54 54q5.428 5.428 5.428 12.857t-5.428 12.857l-26 26q-5.143 5.143-12.857 5.143t-12.857-5.143l-129.429-129.429q-5.143-5.143-5.143-12.857t5.143-12.857l129.429-129.428q5.143-5.143 12.857-5.143t12.857 5.143l26 26q5.143 5.143 5.143 12.857t-5.143 12.857l-54 54h143.428q7.428 0 12.857 5.428t5.428 12.857zM438.857 224q0-59.714-29.428-110.143t-79.857-79.857-110.143-29.428-110.143 29.428-79.857 79.857-29.428 110.143 29.428 110.143 79.857 79.857 110.143 29.428 110.143-29.428 79.857-79.857 29.428-110.143z" />
<glyph unicode="&#xf0a9;" d="M367.143 224q0 7.714-5.143 12.857l-129.429 129.429q-5.143 5.143-12.857 5.143t-12.857-5.143l-26-26q-5.143-5.143-5.143-12.857t5.143-12.857l54-54h-143.429q-7.428 0-12.857-5.428t-5.428-12.857v-36.571q0-7.428 5.428-12.857t12.857-5.428h143.429l-54-54q-5.429-5.428-5.429-12.857t5.428-12.857l26-26q5.143-5.143 12.857-5.143t12.857 5.143l129.429 129.428q5.143 5.143 5.143 12.857zM438.857 224q0-59.714-29.428-110.143t-79.857-79.857-110.143-29.428-110.143 29.428-79.857 79.857-29.428 110.143 29.428 110.143 79.857 79.857 110.143 29.428 110.143-29.428 79.857-79.857 29.428-110.143z" />
<glyph unicode="&#xf0aa;" d="M366.857 224.286q0 7.714-5.143 12.857l-129.429 129.429q-5.143 5.143-12.857 5.143t-12.857-5.143l-129.429-129.429q-5.143-5.143-5.143-12.857t5.143-12.857l26-26q5.143-5.143 12.857-5.143t12.857 5.143l54 54v-143.428q0-7.428 5.428-12.857t12.857-5.428h36.571q7.428 0 12.857 5.428t5.429 12.857v143.429l54-54q5.428-5.428 12.857-5.428t12.857 5.428l26 26q5.143 5.143 5.143 12.857zM438.857 224q0-59.714-29.428-110.143t-79.857-79.857-110.143-29.428-110.143 29.428-79.857 79.857-29.428 110.143 29.428 110.143 79.857 79.857 110.143 29.428 110.143-29.428 79.857-79.857 29.428-110.143z" />
<glyph unicode="&#xf0ab;" d="M366.857 224.286q0 7.714-5.143 12.857l-129.429 129.429q-5.143 5.143-12.857 5.143t-12.857-5.143l-129.429-129.429q-5.143-5.143-5.143-12.857t5.143-12.857l26-26q5.143-5.143 12.857-5.143t12.857 5.143l54 54v-143.428q0-7.428 5.428-12.857t12.857-5.428h36.571q7.428 0 12.857 5.428t5.429 12.857v143.429l54-54q5.428-5.428 12.857-5.428t12.857 5.428l26 26q5.143 5.143 5.143 12.857zM438.857 224q0-59.714-29.428-110.143t-79.857-79.857-110.143-29.428-110.143 29.428-79.857 79.857-29.428 110.143 29.428 110.143 79.857 79.857 110.143 29.428 110.143-29.428 79.857-79.857 29.428-110.143z" />
<glyph unicode="&#xf0ac;" d="M366.857 223.714q0 7.714-5.143 12.857l-26 26q-5.143 5.143-12.857 5.143t-12.857-5.143l-54-54v143.428q0 7.429-5.428 12.857t-12.857 5.428h-36.571q-7.428 0-12.857-5.428t-5.429-12.857v-143.428l-54 54q-5.428 5.428-12.857 5.428t-12.857-5.428l-26-26q-5.143-5.143-5.143-12.857t5.143-12.857l129.429-129.428q5.143-5.143 12.857-5.143t12.857 5.143l129.429 129.428q5.143 5.143 5.143 12.857zM438.857 224q0-59.714-29.428-110.143t-79.857-79.857-110.143-29.428-110.143 29.428-79.857 79.857-29.428 110.143 29.428 110.143 79.857 79.857 110.143 29.428 110.143-29.428 79.857-79.857 29.428-110.143z" />
<glyph unicode="&#xf0b2;" d="M366.572 325.428l-101.428-101.428 101.428-101.428 41.143 41.143q8.286 8.857 20 4 11.143-4.857 11.143-16.857v-128q0-7.428-5.428-12.857t-12.857-5.428h-128q-12 0-16.857 11.428-4.857 11.143 4 19.714l41.143 41.143-101.428 101.428-101.428-101.428 41.143-41.143q8.857-8.572 4-19.714-4.857-11.428-16.857-11.428h-128q-7.428 0-12.857 5.428t-5.428 12.857v128q0 12 11.428 16.857 11.143 4.857 19.715-4l41.143-41.143 101.428 101.428-101.428 101.428-41.143-41.143q-5.428-5.428-12.857-5.428-3.428 0-6.857 1.428-11.428 4.857-11.428 16.857v128q0 7.428 5.428 12.857t12.857 5.428h128q12 0 16.857-11.428 4.857-11.143-4-19.715l-41.143-41.143 101.428-101.429 101.428 101.429-41.143 41.143q-8.857 8.572-4 19.715 4.857 11.428 16.857 11.428h128q7.428 0 12.857-5.428t5.428-12.857v-128q0-12-11.143-16.857-3.714-1.428-7.143-1.428-7.428 0-12.857 5.428z" />
<glyph unicode="&#xf0d7;" d="M292.572 278.857q0-7.428-5.428-12.857l-128-128q-5.428-5.428-12.857-5.428t-12.857 5.428l-128 128q-5.428 5.428-5.428 12.857t5.428 12.857 12.857 5.428h256q7.428 0 12.857-5.428t5.428-12.857z" horiz-adv-x="293" />
<glyph unicode="&#xf0d8;" d="M292.572 132.572q0-7.428-5.428-12.857t-12.857-5.428h-256q-7.428 0-12.857 5.428t-5.428 12.857 5.428 12.857l128 128q5.429 5.428 12.857 5.428t12.857-5.428l128-128q5.428-5.428 5.428-12.857z" horiz-adv-x="293" />
<glyph unicode="&#xf0d9;" d="M182.857 352v-256q0-7.428-5.429-12.857t-12.857-5.428-12.857 5.428l-128 128q-5.428 5.428-5.428 12.857t5.428 12.857l128 128q5.428 5.428 12.857 5.428t12.857-5.428 5.428-12.857z" horiz-adv-x="183" />
<glyph unicode="&#xf0da;" d="M164.571 224q0-7.428-5.429-12.857l-128-128q-5.428-5.428-12.857-5.428t-12.857 5.428-5.428 12.857v256q0 7.428 5.428 12.857t12.857 5.429 12.857-5.429l128-128q5.428-5.429 5.428-12.857z" horiz-adv-x="183" />
<glyph unicode="&#xf105;" d="M170 205.714q0-3.714-2.857-6.572l-133.143-133.143q-2.857-2.857-6.572-2.857t-6.572 2.857l-14.286 14.286q-2.857 2.857-2.857 6.572t2.857 6.572l112.285 112.286-112.285 112.286q-2.857 2.857-2.857 6.572t2.857 6.572l14.285 14.286q2.857 2.857 6.572 2.857t6.572-2.857l133.143-133.143q2.857-2.857 2.857-6.572z" horiz-adv-x="183" />
<glyph unicode="&#xf107;" d="M307.143 269.714q0-3.714-2.857-6.572l-133.143-133.143q-2.857-2.857-6.571-2.857t-6.572 2.857l-133.143 133.143q-2.857 2.857-2.857 6.571t2.857 6.572l14.285 14.286q2.857 2.857 6.572 2.857t6.572-2.857l112.285-112.286 112.285 112.286q2.857 2.857 6.572 2.857t6.572-2.857l14.286-14.286q2.857-2.857 2.857-6.572z" horiz-adv-x="329" />
<glyph unicode="&#xf10c;" d="M219.429 379.428q-42.285 0-78-20.857t-56.572-56.572-20.857-78 20.857-78 56.572-56.572 78-20.857 78 20.857 56.572 56.572 20.857 78-20.857 78-56.572 56.572-78 20.857zM438.857 224q0-59.714-29.428-110.143t-79.857-79.857-110.143-29.428-110.143 29.428-79.857 79.857-29.428 110.143 29.428 110.143 79.857 79.857 110.143 29.428 110.143-29.428 79.857-79.857 29.428-110.143z" />
<glyph unicode="&#xf124;" d="M400.286 380.286l-182.857-365.714q-4.857-10-16.285-10-1.429 0-4.286 0.572-6.286 1.428-10.143 6.428t-3.857 11.286v164.571h-164.571q-6.285 0-11.286 3.857t-6.428 10.143 1.143 12 8.286 8.572l365.714 182.857q3.714 2 8.286 2 7.714 0 12.857-5.428 4.286-4 5.286-9.857t-1.857-11.286z" horiz-adv-x="403" />
<glyph unicode="&#xf13e;" d="M301.714 260.572q11.428 0 19.428-8t8-19.429v-164.571q0-11.428-8-19.428t-19.428-8h-274.286q-11.428 0-19.428 8t-8 19.428v164.571q0 11.429 8 19.429t19.428 8h9.143v91.428q0 52.857 37.572 90.428t90.428 37.572 90.429-37.572 37.572-90.428q0-7.428-5.428-12.857t-12.857-5.428h-18.286q-7.428 0-12.857 5.428t-5.429 12.857q0 30.286-21.428 51.715t-51.714 21.428-51.715-21.428-21.428-51.715v-91.428h210.285z" horiz-adv-x="329" />
<glyph unicode="&#xf14d;" d="M287.143 165.428l100.572 100.572q5.428 5.428 5.428 12.857t-5.428 12.857l-100.572 100.572q-8.572 8.857-19.714 4-11.428-4.857-11.428-16.857v-45.714q-34 0-61.714-5.572t-46.428-14.572-32.572-22.572-21.857-27.286-12.715-31.143-6.143-31.857-1.428-31.572q0-51.714 47.715-115.428 2.857-3.428 7.143-3.428 2 0 3.714 0.857 6.286 2.572 5.429 9.428-12.572 101.143 17.714 135.143 13.143 14.857 37.143 21.572t64 6.714v-45.714q0-12 11.428-16.857 3.428-1.428 6.857-1.428 7.428 0 12.857 5.428zM438.857 361.143v-274.286q0-34-24.143-58.143t-58.143-24.143h-274.286q-34 0-58.143 24.143t-24.143 58.143v274.286q0 34 24.143 58.143t58.143 24.143h274.286q34 0 58.143-24.143t24.143-58.143z" />
<glyph unicode="&#xf178;" d="M493.714 224.857q0-4-2.857-6.857l-109.714-101.143q-4.572-4-10-1.714-5.428 2.572-5.428 8.286v64h-356.572q-4 0-6.572 2.572t-2.571 6.572v54.857q0 4 2.571 6.571t6.572 2.572h356.572v64q0 6 5.428 8.285t10-1.428l109.714-100q2.857-2.857 2.857-6.572z" />
</font>
</defs>
</svg>
